# xmcd CD database file
#
# Track frame offsets:
#	150
#	18414
#	34731
#	49853
#
# Disc length: 907 seconds
#
# Revision: 1
# Processed by: cddbd v1.5.2PL0 Copyright (c) Steve Scherf et al.
# Submitted via: CDex 1.70beta2
#
DISCID=2a038904
DTITLE=滴草由実 - GO YOUR OWN WAY
DYEAR=2008
DGENRE=JPop
TTITLE0=GO YOUR OWN WAY
TTITLE1=Stay with me
TTITLE2=YOU ARE EVERYTHING(feat.JAHAH)
TTITLE3=GO YOUR OWN WAY(inst)
EXTD=YEAR: 2008
EXTT0=GO YOUR OWN WAY
EXTT1=Stay with me
EXTT2=YOU ARE EVERYTHING(feat.JAHAH)
EXTT3=不明a
PLAYORDER=
